<svg width="27" height="27" viewBox="0 0 27 27" fill="none" xmlns="http://www.w3.org/2000/svg">
<g id="Frame 2">

<path id="Vector" d="M8.47876 18.7683C8.47876 20.0199 9.47856 21.0348 10.7091 21.0348C11.9396 21.0348 12.9753 19.9988 12.9753 18.7315V16.4966H10.6937C9.47344 16.4966 8.47876 17.5168 8.47876 18.7683Z" fill="black"/>
<path id="Vector_2" d="M16.3337 10.8589H16.2619C15.0417 10.8589 14.0521 11.8738 14.0521 13.1254C14.0521 14.3769 15.0417 15.3971 16.2619 15.3971H16.3337C17.554 15.3971 18.5487 14.3769 18.5487 13.1254C18.5487 11.8738 17.554 10.8589 16.3337 10.8589Z" fill="black"/>
<path id="Vector_3" d="M8.47876 13.1254C8.47876 14.3717 9.46318 15.3866 10.6783 15.3971H12.9753V10.8589H10.6937C9.47344 10.8589 8.47876 11.8738 8.47876 13.1254Z" fill="black"/>
<path id="Vector_4" d="M8.47876 7.48327C8.47876 8.73483 9.47344 9.755 10.6937 9.755H12.9753V5.2168H10.6937C9.47344 5.2168 8.47876 6.23171 8.47876 7.48327Z" fill="black"/>
<path id="Vector_5" d="M21.989 0H5.03843C2.46458 0 0.388062 2.12975 0.388062 4.76959V21.4868C0.388062 24.1214 2.46458 26.2564 5.03843 26.2564H21.9941C24.5628 26.2564 26.6444 24.1266 26.6444 21.4868V4.76959C26.6444 2.13501 24.5679 0 21.9941 0H21.989ZM19.6253 13.1256C19.6253 14.9871 18.1487 16.5016 16.3337 16.5016H16.2619C15.4108 16.5016 14.6365 16.1703 14.052 15.6234V18.7365C14.052 20.6191 12.5498 22.1494 10.7091 22.1494C8.86845 22.1494 7.40207 20.6349 7.40207 18.7733C7.40207 16.9118 7.99683 16.5542 8.88896 15.9495C7.9917 15.3447 7.40207 14.3088 7.40207 13.1256C7.40207 11.9424 7.99683 10.9064 8.88896 10.3017C7.9917 9.69693 7.40207 8.66098 7.40207 7.47778C7.40207 5.61623 8.8787 4.10174 10.6937 4.10174H16.3388C18.1538 4.10174 19.6304 5.61623 19.6304 7.47778C19.6304 9.33934 19.0357 9.69693 18.1436 10.3017C19.0408 10.9064 19.6304 11.9424 19.6304 13.1256H19.6253Z" fill="black"/>
<path id="Vector_6" d="M16.3337 5.2168H14.0521V9.755H16.3337C17.554 9.755 18.5487 8.73483 18.5487 7.48327C18.5487 6.23171 17.554 5.2168 16.3337 5.2168Z" fill="black"/>

</g>
</svg>
