<svg width="27" height="26" viewBox="0 0 27 26" fill="none" xmlns="http://www.w3.org/2000/svg">
<g id="indesign-logo" clip-path="url(#clip0_278_364)">

<path id="Vector" d="M22.217 0H4.78301C2.13574 0 0 2.10938 0 4.72396V21.2813C0 23.8906 2.13574 26.0052 4.78301 26.0052H22.2223C24.8643 26.0052 27.0053 23.8958 27.0053 21.2813V4.72396C27.0053 2.11458 24.8695 0 22.2223 0H22.217ZM9.80859 18.1979C9.80859 18.3177 9.75059 18.375 9.65039 18.375H7.44609C7.3459 18.375 7.29844 18.3177 7.29844 18.1979V6.79688C7.29844 6.69792 7.35644 6.65104 7.45664 6.65104H9.65039C9.71895 6.64062 9.7875 6.68229 9.79805 6.76042C9.80859 6.77083 9.80859 6.78125 9.80859 6.79167V18.1927V18.1979ZM19.8545 17.8646C19.2691 18.1094 18.6521 18.2865 18.0193 18.3958C17.4551 18.4948 16.8697 18.5521 16.2844 18.5521C15.4512 18.5625 14.618 18.3958 13.8639 18.0521C13.1572 17.7292 12.5719 17.1979 12.1658 16.5417C11.7492 15.8646 11.5488 15.0208 11.5488 14.0104C11.5383 13.1875 11.7492 12.375 12.1658 11.6667C12.593 10.9427 13.21 10.3438 13.9535 9.94271C14.7393 9.51042 15.6885 9.29688 16.8012 9.29688C17.9139 9.29688 16.9383 9.29688 17.0385 9.30729C17.1387 9.31771 17.2547 9.31771 17.3865 9.32813V5.81771C17.3865 5.73958 17.4182 5.69792 17.4973 5.69792H19.7807C19.8387 5.6875 19.8809 5.72917 19.8914 5.77604V16.375C19.8914 16.5729 19.902 16.7969 19.9125 17.0417C19.9336 17.276 19.9441 17.4948 19.96 17.6875C19.96 17.7656 19.9283 17.8333 19.8492 17.8646H19.8545ZM16.7168 11.3646C16.2791 11.3646 15.8414 11.4531 15.4459 11.651C15.0609 11.8385 14.7393 12.1198 14.4914 12.474C14.2436 12.8281 14.1223 13.3073 14.1223 13.8854C14.1117 14.276 14.1803 14.6615 14.3121 15.0313C14.4229 15.3333 14.5916 15.599 14.8184 15.8177C15.0346 16.0156 15.293 16.1719 15.583 16.2604C15.8889 16.3594 16.2 16.4062 16.5164 16.4062C16.8328 16.4062 16.8434 16.3958 16.991 16.3854C17.1387 16.3958 17.2705 16.375 17.3971 16.3281V11.4375C17.2969 11.4167 17.1967 11.3906 17.0912 11.3802C16.9699 11.3698 16.8434 11.3594 16.7221 11.3594L16.7168 11.3646Z" fill="black"/>

</g>
<defs>
<clipPath id="clip0_278_364">
<rect width="27" height="26" fill="white"/>
</clipPath>
</defs>
</svg>
